%TF.GenerationSoftware,KiCad,Pcbnew,(5.1.9)-1*%
%TF.CreationDate,2021-08-17T19:58:34-04:00*%
%TF.ProjectId,555-Timer-Soldering-Demo,3535352d-5469-46d6-9572-2d536f6c6465,rev?*%
%TF.SameCoordinates,Original*%
%TF.FileFunction,Soldermask,Bot*%
%TF.FilePolarity,Negative*%
%FSLAX46Y46*%
G04 Gerber Fmt 4.6, Leading zero omitted, Abs format (unit mm)*
G04 Created by KiCad (PCBNEW (5.1.9)-1) date 2021-08-17 19:58:34*
%MOMM*%
%LPD*%
G01*
G04 APERTURE LIST*
%ADD10R,1.700000X1.700000*%
%ADD11O,1.700000X1.700000*%
%ADD12O,1.600000X1.600000*%
%ADD13C,1.600000*%
%ADD14C,4.600000*%
%ADD15C,1.800000*%
G04 APERTURE END LIST*
D10*
%TO.C,JX1*%
X129900000Y-79750000D03*
D11*
X129900000Y-82290000D03*
X129900000Y-84830000D03*
X129900000Y-87370000D03*
X129900000Y-89910000D03*
X129900000Y-92450000D03*
X129900000Y-94990000D03*
X129900000Y-97530000D03*
%TD*%
D10*
%TO.C,JX3*%
X134910000Y-79750000D03*
D11*
X134910000Y-82290000D03*
X134910000Y-84830000D03*
X134910000Y-87370000D03*
X134910000Y-89910000D03*
X134910000Y-92450000D03*
X134910000Y-94990000D03*
X134910000Y-97530000D03*
%TD*%
D10*
%TO.C,JX2*%
X132370000Y-79750000D03*
D11*
X132370000Y-82290000D03*
X132370000Y-84830000D03*
X132370000Y-87370000D03*
X132370000Y-89910000D03*
X132370000Y-92450000D03*
X132370000Y-94990000D03*
X132370000Y-97530000D03*
%TD*%
D10*
%TO.C,JX8*%
X147610000Y-79750000D03*
D11*
X147610000Y-82290000D03*
X147610000Y-84830000D03*
X147610000Y-87370000D03*
X147610000Y-89910000D03*
X147610000Y-92450000D03*
X147610000Y-94990000D03*
X147610000Y-97530000D03*
%TD*%
D10*
%TO.C,JX7*%
X145070000Y-79750000D03*
D11*
X145070000Y-82290000D03*
X145070000Y-84830000D03*
X145070000Y-87370000D03*
X145070000Y-89910000D03*
X145070000Y-92450000D03*
X145070000Y-94990000D03*
X145070000Y-97530000D03*
%TD*%
D10*
%TO.C,JX6*%
X142530000Y-79750000D03*
D11*
X142530000Y-82290000D03*
X142530000Y-84830000D03*
X142530000Y-87370000D03*
X142530000Y-89910000D03*
X142530000Y-92450000D03*
X142530000Y-94990000D03*
X142530000Y-97530000D03*
%TD*%
D10*
%TO.C,JX5*%
X139990000Y-79750000D03*
D11*
X139990000Y-82290000D03*
X139990000Y-84830000D03*
X139990000Y-87370000D03*
X139990000Y-89910000D03*
X139990000Y-92450000D03*
X139990000Y-94990000D03*
X139990000Y-97530000D03*
%TD*%
D10*
%TO.C,JX4*%
X137450000Y-79750000D03*
D11*
X137450000Y-82290000D03*
X137450000Y-84830000D03*
X137450000Y-87370000D03*
X137450000Y-89910000D03*
X137450000Y-92450000D03*
X137450000Y-94990000D03*
X137450000Y-97530000D03*
%TD*%
%TO.C,J2*%
X122750000Y-91790000D03*
D10*
X122750000Y-89250000D03*
%TD*%
D11*
%TO.C,J1*%
X118290000Y-55500000D03*
D10*
X115750000Y-55500000D03*
%TD*%
D12*
%TO.C,R1*%
X105000000Y-80160000D03*
D13*
X105000000Y-70000000D03*
%TD*%
D14*
%TO.C,RV1*%
X105000000Y-87700000D03*
X115000000Y-87700000D03*
D15*
X107500000Y-91000000D03*
X110000000Y-91000000D03*
X112500000Y-91000000D03*
%TD*%
D13*
%TO.C,C1*%
X105000000Y-64000000D03*
X107500000Y-64000000D03*
%TD*%
M02*
