M48
INCH,TZ
T1C0.0157
T2C0.0315
T3C0.0394
T4C0.0906
%
G90
G05
T1
X44882Y-28177
X45842Y-25763
X46010Y-29278
X46904Y-29778
X47072Y-25763
T2
X41339Y-25197
X41339Y-27559
X41339Y-31559
X42323Y-25197
T3
X42323Y-35827
X43307Y-35827
X44291Y-35827
X45571Y-21850
X46571Y-21850
X48327Y-35138
X48327Y-36138
X51142Y-31398
X51142Y-32398
X51142Y-33398
X51142Y-34398
X51142Y-35398
X51142Y-36398
X51142Y-37398
X51142Y-38398
X52114Y-31398
X52114Y-32398
X52114Y-33398
X52114Y-34398
X52114Y-35398
X52114Y-36398
X52114Y-37398
X52114Y-38398
X53114Y-31398
X53114Y-32398
X53114Y-33398
X53114Y-34398
X53114Y-35398
X53114Y-36398
X53114Y-37398
X53114Y-38398
X54114Y-31398
X54114Y-32398
X54114Y-33398
X54114Y-34398
X54114Y-35398
X54114Y-36398
X54114Y-37398
X54114Y-38398
X55114Y-31398
X55114Y-32398
X55114Y-33398
X55114Y-34398
X55114Y-35398
X55114Y-36398
X55114Y-37398
X55114Y-38398
X56114Y-31398
X56114Y-32398
X56114Y-33398
X56114Y-34398
X56114Y-35398
X56114Y-36398
X56114Y-37398
X56114Y-38398
X57114Y-31398
X57114Y-32398
X57114Y-33398
X57114Y-34398
X57114Y-35398
X57114Y-36398
X57114Y-37398
X57114Y-38398
X58114Y-31398
X58114Y-32398
X58114Y-33398
X58114Y-34398
X58114Y-35398
X58114Y-36398
X58114Y-37398
X58114Y-38398
T4
X41339Y-34528
X45276Y-34528
T0
M30
