%TF.GenerationSoftware,KiCad,Pcbnew,(5.1.9)-1*%
%TF.CreationDate,2021-08-16T16:35:21-04:00*%
%TF.ProjectId,555-Timer-Soldering-Demo,3535352d-5469-46d6-9572-2d536f6c6465,rev?*%
%TF.SameCoordinates,Original*%
%TF.FileFunction,Copper,L2,Bot*%
%TF.FilePolarity,Positive*%
%FSLAX46Y46*%
G04 Gerber Fmt 4.6, Leading zero omitted, Abs format (unit mm)*
G04 Created by KiCad (PCBNEW (5.1.9)-1) date 2021-08-16 16:35:21*
%MOMM*%
%LPD*%
G01*
G04 APERTURE LIST*
%TA.AperFunction,ComponentPad*%
%ADD10O,1.000000X1.000000*%
%TD*%
%TA.AperFunction,ComponentPad*%
%ADD11R,1.000000X1.000000*%
%TD*%
%TA.AperFunction,ComponentPad*%
%ADD12O,1.600000X1.600000*%
%TD*%
%TA.AperFunction,ComponentPad*%
%ADD13C,1.600000*%
%TD*%
%TA.AperFunction,ComponentPad*%
%ADD14C,4.600000*%
%TD*%
%TA.AperFunction,ComponentPad*%
%ADD15C,1.800000*%
%TD*%
%TA.AperFunction,ViaPad*%
%ADD16C,0.800000*%
%TD*%
%TA.AperFunction,Conductor*%
%ADD17C,0.250000*%
%TD*%
%TA.AperFunction,Conductor*%
%ADD18C,0.254000*%
%TD*%
%TA.AperFunction,Conductor*%
%ADD19C,0.100000*%
%TD*%
G04 APERTURE END LIST*
D10*
%TO.P,J1,2*%
%TO.N,/VCC*%
X114270000Y-56000000D03*
D11*
%TO.P,J1,1*%
%TO.N,GND*%
X113000000Y-56000000D03*
%TD*%
D10*
%TO.P,J2,2*%
%TO.N,/Output*%
X125500000Y-91270000D03*
D11*
%TO.P,J2,1*%
%TO.N,GND*%
X125500000Y-90000000D03*
%TD*%
D12*
%TO.P,R1,2*%
%TO.N,Net-(R1-Pad2)*%
X105000000Y-80160000D03*
D13*
%TO.P,R1,1*%
%TO.N,Trigger*%
X105000000Y-70000000D03*
%TD*%
D14*
%TO.P,RV1,*%
%TO.N,*%
X105000000Y-87700000D03*
X115000000Y-87700000D03*
D15*
%TO.P,RV1,1*%
%TO.N,Net-(R1-Pad2)*%
X107500000Y-91000000D03*
%TO.P,RV1,2*%
%TO.N,/Output*%
X110000000Y-91000000D03*
%TO.P,RV1,3*%
%TO.N,Net-(RV1-Pad3)*%
X112500000Y-91000000D03*
%TD*%
D13*
%TO.P,C1,2*%
%TO.N,GND*%
X105000000Y-64000000D03*
%TO.P,C1,1*%
%TO.N,Net-(C1-Pad1)*%
X107500000Y-64000000D03*
%TD*%
D16*
%TO.N,GND*%
X116437500Y-65437500D03*
X114000000Y-71570000D03*
%TO.N,Trigger*%
X116865000Y-74365000D03*
X119135000Y-75635000D03*
X119562500Y-65437500D03*
%TD*%
D17*
%TO.N,Trigger*%
X118135000Y-75635000D02*
X116865000Y-74365000D01*
X119135000Y-75635000D02*
X118135000Y-75635000D01*
X119562500Y-71667500D02*
X116865000Y-74365000D01*
X119562500Y-65437500D02*
X119562500Y-71667500D01*
%TD*%
D18*
%TO.N,GND*%
X123373000Y-80000000D02*
X123375440Y-80024776D01*
X123382667Y-80048601D01*
X123394403Y-80070557D01*
X123410197Y-80089803D01*
X129873000Y-86552606D01*
X129873000Y-98373000D01*
X101627000Y-98373000D01*
X101627000Y-87410928D01*
X102065000Y-87410928D01*
X102065000Y-87989072D01*
X102177791Y-88556108D01*
X102399037Y-89090244D01*
X102720237Y-89570953D01*
X103129047Y-89979763D01*
X103609756Y-90300963D01*
X104143892Y-90522209D01*
X104710928Y-90635000D01*
X105289072Y-90635000D01*
X105856108Y-90522209D01*
X106073783Y-90432045D01*
X106023989Y-90552257D01*
X105965000Y-90848816D01*
X105965000Y-91151184D01*
X106023989Y-91447743D01*
X106139701Y-91727095D01*
X106307688Y-91978505D01*
X106521495Y-92192312D01*
X106772905Y-92360299D01*
X107052257Y-92476011D01*
X107348816Y-92535000D01*
X107651184Y-92535000D01*
X107947743Y-92476011D01*
X108227095Y-92360299D01*
X108478505Y-92192312D01*
X108692312Y-91978505D01*
X108750000Y-91892169D01*
X108807688Y-91978505D01*
X109021495Y-92192312D01*
X109272905Y-92360299D01*
X109552257Y-92476011D01*
X109848816Y-92535000D01*
X110151184Y-92535000D01*
X110447743Y-92476011D01*
X110727095Y-92360299D01*
X110978505Y-92192312D01*
X111192312Y-91978505D01*
X111250000Y-91892169D01*
X111307688Y-91978505D01*
X111521495Y-92192312D01*
X111772905Y-92360299D01*
X112052257Y-92476011D01*
X112348816Y-92535000D01*
X112651184Y-92535000D01*
X112947743Y-92476011D01*
X113227095Y-92360299D01*
X113478505Y-92192312D01*
X113692312Y-91978505D01*
X113860299Y-91727095D01*
X113976011Y-91447743D01*
X114035000Y-91151184D01*
X114035000Y-90848816D01*
X113976011Y-90552257D01*
X113926217Y-90432045D01*
X114143892Y-90522209D01*
X114710928Y-90635000D01*
X115289072Y-90635000D01*
X115856108Y-90522209D01*
X115909725Y-90500000D01*
X124361928Y-90500000D01*
X124374188Y-90624482D01*
X124410498Y-90744180D01*
X124454888Y-90827226D01*
X124408617Y-90938933D01*
X124365000Y-91158212D01*
X124365000Y-91381788D01*
X124408617Y-91601067D01*
X124494176Y-91807624D01*
X124618388Y-91993520D01*
X124776480Y-92151612D01*
X124962376Y-92275824D01*
X125168933Y-92361383D01*
X125388212Y-92405000D01*
X125611788Y-92405000D01*
X125831067Y-92361383D01*
X126037624Y-92275824D01*
X126223520Y-92151612D01*
X126381612Y-91993520D01*
X126505824Y-91807624D01*
X126591383Y-91601067D01*
X126635000Y-91381788D01*
X126635000Y-91158212D01*
X126591383Y-90938933D01*
X126545112Y-90827226D01*
X126589502Y-90744180D01*
X126625812Y-90624482D01*
X126638072Y-90500000D01*
X126635000Y-90285750D01*
X126476250Y-90127000D01*
X125627000Y-90127000D01*
X125627000Y-90138026D01*
X125611788Y-90135000D01*
X125388212Y-90135000D01*
X125373000Y-90138026D01*
X125373000Y-90127000D01*
X124523750Y-90127000D01*
X124365000Y-90285750D01*
X124361928Y-90500000D01*
X115909725Y-90500000D01*
X116390244Y-90300963D01*
X116870953Y-89979763D01*
X117279763Y-89570953D01*
X117327172Y-89500000D01*
X124361928Y-89500000D01*
X124365000Y-89714250D01*
X124523750Y-89873000D01*
X125373000Y-89873000D01*
X125373000Y-89023750D01*
X125627000Y-89023750D01*
X125627000Y-89873000D01*
X126476250Y-89873000D01*
X126635000Y-89714250D01*
X126638072Y-89500000D01*
X126625812Y-89375518D01*
X126589502Y-89255820D01*
X126530537Y-89145506D01*
X126451185Y-89048815D01*
X126354494Y-88969463D01*
X126244180Y-88910498D01*
X126124482Y-88874188D01*
X126000000Y-88861928D01*
X125785750Y-88865000D01*
X125627000Y-89023750D01*
X125373000Y-89023750D01*
X125214250Y-88865000D01*
X125000000Y-88861928D01*
X124875518Y-88874188D01*
X124755820Y-88910498D01*
X124645506Y-88969463D01*
X124548815Y-89048815D01*
X124469463Y-89145506D01*
X124410498Y-89255820D01*
X124374188Y-89375518D01*
X124361928Y-89500000D01*
X117327172Y-89500000D01*
X117600963Y-89090244D01*
X117822209Y-88556108D01*
X117935000Y-87989072D01*
X117935000Y-87410928D01*
X117822209Y-86843892D01*
X117600963Y-86309756D01*
X117279763Y-85829047D01*
X116870953Y-85420237D01*
X116390244Y-85099037D01*
X115856108Y-84877791D01*
X115289072Y-84765000D01*
X114710928Y-84765000D01*
X114143892Y-84877791D01*
X113609756Y-85099037D01*
X113129047Y-85420237D01*
X112720237Y-85829047D01*
X112399037Y-86309756D01*
X112177791Y-86843892D01*
X112065000Y-87410928D01*
X112065000Y-87989072D01*
X112177791Y-88556108D01*
X112399037Y-89090244D01*
X112649441Y-89465000D01*
X112348816Y-89465000D01*
X112052257Y-89523989D01*
X111772905Y-89639701D01*
X111521495Y-89807688D01*
X111307688Y-90021495D01*
X111250000Y-90107831D01*
X111192312Y-90021495D01*
X110978505Y-89807688D01*
X110727095Y-89639701D01*
X110447743Y-89523989D01*
X110151184Y-89465000D01*
X109848816Y-89465000D01*
X109552257Y-89523989D01*
X109272905Y-89639701D01*
X109021495Y-89807688D01*
X108807688Y-90021495D01*
X108750000Y-90107831D01*
X108692312Y-90021495D01*
X108478505Y-89807688D01*
X108227095Y-89639701D01*
X107947743Y-89523989D01*
X107651184Y-89465000D01*
X107350559Y-89465000D01*
X107600963Y-89090244D01*
X107822209Y-88556108D01*
X107935000Y-87989072D01*
X107935000Y-87410928D01*
X107822209Y-86843892D01*
X107600963Y-86309756D01*
X107279763Y-85829047D01*
X106870953Y-85420237D01*
X106390244Y-85099037D01*
X105856108Y-84877791D01*
X105289072Y-84765000D01*
X104710928Y-84765000D01*
X104143892Y-84877791D01*
X103609756Y-85099037D01*
X103129047Y-85420237D01*
X102720237Y-85829047D01*
X102399037Y-86309756D01*
X102177791Y-86843892D01*
X102065000Y-87410928D01*
X101627000Y-87410928D01*
X101627000Y-80018665D01*
X103565000Y-80018665D01*
X103565000Y-80301335D01*
X103620147Y-80578574D01*
X103728320Y-80839727D01*
X103885363Y-81074759D01*
X104085241Y-81274637D01*
X104320273Y-81431680D01*
X104581426Y-81539853D01*
X104858665Y-81595000D01*
X105141335Y-81595000D01*
X105418574Y-81539853D01*
X105679727Y-81431680D01*
X105914759Y-81274637D01*
X106114637Y-81074759D01*
X106271680Y-80839727D01*
X106379853Y-80578574D01*
X106435000Y-80301335D01*
X106435000Y-80018665D01*
X106379853Y-79741426D01*
X106271680Y-79480273D01*
X106114637Y-79245241D01*
X105914759Y-79045363D01*
X105679727Y-78888320D01*
X105418574Y-78780147D01*
X105141335Y-78725000D01*
X104858665Y-78725000D01*
X104581426Y-78780147D01*
X104320273Y-78888320D01*
X104085241Y-79045363D01*
X103885363Y-79245241D01*
X103728320Y-79480273D01*
X103620147Y-79741426D01*
X103565000Y-80018665D01*
X101627000Y-80018665D01*
X101627000Y-74263061D01*
X115830000Y-74263061D01*
X115830000Y-74466939D01*
X115869774Y-74666898D01*
X115947795Y-74855256D01*
X116061063Y-75024774D01*
X116205226Y-75168937D01*
X116374744Y-75282205D01*
X116563102Y-75360226D01*
X116763061Y-75400000D01*
X116825199Y-75400000D01*
X117571201Y-76146003D01*
X117594999Y-76175001D01*
X117710724Y-76269974D01*
X117842753Y-76340546D01*
X117986014Y-76384003D01*
X118097667Y-76395000D01*
X118097676Y-76395000D01*
X118134999Y-76398676D01*
X118172322Y-76395000D01*
X118431289Y-76395000D01*
X118475226Y-76438937D01*
X118644744Y-76552205D01*
X118833102Y-76630226D01*
X119033061Y-76670000D01*
X119236939Y-76670000D01*
X119436898Y-76630226D01*
X119625256Y-76552205D01*
X119794774Y-76438937D01*
X119938937Y-76294774D01*
X120052205Y-76125256D01*
X120130226Y-75936898D01*
X120170000Y-75736939D01*
X120170000Y-75533061D01*
X120130226Y-75333102D01*
X120052205Y-75144744D01*
X119938937Y-74975226D01*
X119794774Y-74831063D01*
X119625256Y-74717795D01*
X119436898Y-74639774D01*
X119236939Y-74600000D01*
X119033061Y-74600000D01*
X118833102Y-74639774D01*
X118644744Y-74717795D01*
X118475226Y-74831063D01*
X118440545Y-74865744D01*
X117939801Y-74365000D01*
X120073503Y-72231299D01*
X120102501Y-72207501D01*
X120128832Y-72175417D01*
X120197474Y-72091777D01*
X120268046Y-71959747D01*
X120311503Y-71816486D01*
X120322500Y-71704833D01*
X120322500Y-71704824D01*
X120326176Y-71667501D01*
X120322500Y-71630178D01*
X120322500Y-66141211D01*
X120366437Y-66097274D01*
X120479705Y-65927756D01*
X120557726Y-65739398D01*
X120597500Y-65539439D01*
X120597500Y-65335561D01*
X120557726Y-65135602D01*
X120479705Y-64947244D01*
X120366437Y-64777726D01*
X120222274Y-64633563D01*
X120052756Y-64520295D01*
X119864398Y-64442274D01*
X119664439Y-64402500D01*
X119460561Y-64402500D01*
X119260602Y-64442274D01*
X119072244Y-64520295D01*
X118902726Y-64633563D01*
X118758563Y-64777726D01*
X118645295Y-64947244D01*
X118567274Y-65135602D01*
X118527500Y-65335561D01*
X118527500Y-65539439D01*
X118567274Y-65739398D01*
X118645295Y-65927756D01*
X118758563Y-66097274D01*
X118802500Y-66141211D01*
X118802501Y-71352697D01*
X116825199Y-73330000D01*
X116763061Y-73330000D01*
X116563102Y-73369774D01*
X116374744Y-73447795D01*
X116205226Y-73561063D01*
X116061063Y-73705226D01*
X115947795Y-73874744D01*
X115869774Y-74063102D01*
X115830000Y-74263061D01*
X101627000Y-74263061D01*
X101627000Y-69858665D01*
X103565000Y-69858665D01*
X103565000Y-70141335D01*
X103620147Y-70418574D01*
X103728320Y-70679727D01*
X103885363Y-70914759D01*
X104085241Y-71114637D01*
X104320273Y-71271680D01*
X104581426Y-71379853D01*
X104858665Y-71435000D01*
X105141335Y-71435000D01*
X105418574Y-71379853D01*
X105679727Y-71271680D01*
X105914759Y-71114637D01*
X106114637Y-70914759D01*
X106271680Y-70679727D01*
X106379853Y-70418574D01*
X106435000Y-70141335D01*
X106435000Y-69858665D01*
X106379853Y-69581426D01*
X106271680Y-69320273D01*
X106114637Y-69085241D01*
X105914759Y-68885363D01*
X105679727Y-68728320D01*
X105418574Y-68620147D01*
X105141335Y-68565000D01*
X104858665Y-68565000D01*
X104581426Y-68620147D01*
X104320273Y-68728320D01*
X104085241Y-68885363D01*
X103885363Y-69085241D01*
X103728320Y-69320273D01*
X103620147Y-69581426D01*
X103565000Y-69858665D01*
X101627000Y-69858665D01*
X101627000Y-64992702D01*
X104186903Y-64992702D01*
X104258486Y-65236671D01*
X104513996Y-65357571D01*
X104788184Y-65426300D01*
X105070512Y-65440217D01*
X105350130Y-65398787D01*
X105616292Y-65303603D01*
X105741514Y-65236671D01*
X105813097Y-64992702D01*
X105000000Y-64179605D01*
X104186903Y-64992702D01*
X101627000Y-64992702D01*
X101627000Y-64070512D01*
X103559783Y-64070512D01*
X103601213Y-64350130D01*
X103696397Y-64616292D01*
X103763329Y-64741514D01*
X104007298Y-64813097D01*
X104820395Y-64000000D01*
X105179605Y-64000000D01*
X105992702Y-64813097D01*
X106236671Y-64741514D01*
X106250324Y-64712659D01*
X106385363Y-64914759D01*
X106585241Y-65114637D01*
X106820273Y-65271680D01*
X107081426Y-65379853D01*
X107358665Y-65435000D01*
X107641335Y-65435000D01*
X107918574Y-65379853D01*
X108179727Y-65271680D01*
X108414759Y-65114637D01*
X108614637Y-64914759D01*
X108771680Y-64679727D01*
X108879853Y-64418574D01*
X108935000Y-64141335D01*
X108935000Y-63858665D01*
X108879853Y-63581426D01*
X108771680Y-63320273D01*
X108614637Y-63085241D01*
X108414759Y-62885363D01*
X108179727Y-62728320D01*
X107918574Y-62620147D01*
X107641335Y-62565000D01*
X107358665Y-62565000D01*
X107081426Y-62620147D01*
X106820273Y-62728320D01*
X106585241Y-62885363D01*
X106385363Y-63085241D01*
X106251308Y-63285869D01*
X106236671Y-63258486D01*
X105992702Y-63186903D01*
X105179605Y-64000000D01*
X104820395Y-64000000D01*
X104007298Y-63186903D01*
X103763329Y-63258486D01*
X103642429Y-63513996D01*
X103573700Y-63788184D01*
X103559783Y-64070512D01*
X101627000Y-64070512D01*
X101627000Y-63007298D01*
X104186903Y-63007298D01*
X105000000Y-63820395D01*
X105813097Y-63007298D01*
X105741514Y-62763329D01*
X105486004Y-62642429D01*
X105211816Y-62573700D01*
X104929488Y-62559783D01*
X104649870Y-62601213D01*
X104383708Y-62696397D01*
X104258486Y-62763329D01*
X104186903Y-63007298D01*
X101627000Y-63007298D01*
X101627000Y-56500000D01*
X111861928Y-56500000D01*
X111874188Y-56624482D01*
X111910498Y-56744180D01*
X111969463Y-56854494D01*
X112048815Y-56951185D01*
X112145506Y-57030537D01*
X112255820Y-57089502D01*
X112375518Y-57125812D01*
X112500000Y-57138072D01*
X112714250Y-57135000D01*
X112873000Y-56976250D01*
X112873000Y-56127000D01*
X112023750Y-56127000D01*
X111865000Y-56285750D01*
X111861928Y-56500000D01*
X101627000Y-56500000D01*
X101627000Y-55500000D01*
X111861928Y-55500000D01*
X111865000Y-55714250D01*
X112023750Y-55873000D01*
X112873000Y-55873000D01*
X112873000Y-55023750D01*
X113127000Y-55023750D01*
X113127000Y-55873000D01*
X113138026Y-55873000D01*
X113135000Y-55888212D01*
X113135000Y-56111788D01*
X113138026Y-56127000D01*
X113127000Y-56127000D01*
X113127000Y-56976250D01*
X113285750Y-57135000D01*
X113500000Y-57138072D01*
X113624482Y-57125812D01*
X113744180Y-57089502D01*
X113827226Y-57045112D01*
X113938933Y-57091383D01*
X114158212Y-57135000D01*
X114381788Y-57135000D01*
X114601067Y-57091383D01*
X114807624Y-57005824D01*
X114993520Y-56881612D01*
X115151612Y-56723520D01*
X115275824Y-56537624D01*
X115361383Y-56331067D01*
X115405000Y-56111788D01*
X115405000Y-55888212D01*
X115361383Y-55668933D01*
X115275824Y-55462376D01*
X115151612Y-55276480D01*
X114993520Y-55118388D01*
X114807624Y-54994176D01*
X114601067Y-54908617D01*
X114381788Y-54865000D01*
X114158212Y-54865000D01*
X113938933Y-54908617D01*
X113827226Y-54954888D01*
X113744180Y-54910498D01*
X113624482Y-54874188D01*
X113500000Y-54861928D01*
X113285750Y-54865000D01*
X113127000Y-55023750D01*
X112873000Y-55023750D01*
X112714250Y-54865000D01*
X112500000Y-54861928D01*
X112375518Y-54874188D01*
X112255820Y-54910498D01*
X112145506Y-54969463D01*
X112048815Y-55048815D01*
X111969463Y-55145506D01*
X111910498Y-55255820D01*
X111874188Y-55375518D01*
X111861928Y-55500000D01*
X101627000Y-55500000D01*
X101627000Y-51627000D01*
X123373000Y-51627000D01*
X123373000Y-80000000D01*
%TA.AperFunction,Conductor*%
D19*
G36*
X123373000Y-80000000D02*
G01*
X123375440Y-80024776D01*
X123382667Y-80048601D01*
X123394403Y-80070557D01*
X123410197Y-80089803D01*
X129873000Y-86552606D01*
X129873000Y-98373000D01*
X101627000Y-98373000D01*
X101627000Y-87410928D01*
X102065000Y-87410928D01*
X102065000Y-87989072D01*
X102177791Y-88556108D01*
X102399037Y-89090244D01*
X102720237Y-89570953D01*
X103129047Y-89979763D01*
X103609756Y-90300963D01*
X104143892Y-90522209D01*
X104710928Y-90635000D01*
X105289072Y-90635000D01*
X105856108Y-90522209D01*
X106073783Y-90432045D01*
X106023989Y-90552257D01*
X105965000Y-90848816D01*
X105965000Y-91151184D01*
X106023989Y-91447743D01*
X106139701Y-91727095D01*
X106307688Y-91978505D01*
X106521495Y-92192312D01*
X106772905Y-92360299D01*
X107052257Y-92476011D01*
X107348816Y-92535000D01*
X107651184Y-92535000D01*
X107947743Y-92476011D01*
X108227095Y-92360299D01*
X108478505Y-92192312D01*
X108692312Y-91978505D01*
X108750000Y-91892169D01*
X108807688Y-91978505D01*
X109021495Y-92192312D01*
X109272905Y-92360299D01*
X109552257Y-92476011D01*
X109848816Y-92535000D01*
X110151184Y-92535000D01*
X110447743Y-92476011D01*
X110727095Y-92360299D01*
X110978505Y-92192312D01*
X111192312Y-91978505D01*
X111250000Y-91892169D01*
X111307688Y-91978505D01*
X111521495Y-92192312D01*
X111772905Y-92360299D01*
X112052257Y-92476011D01*
X112348816Y-92535000D01*
X112651184Y-92535000D01*
X112947743Y-92476011D01*
X113227095Y-92360299D01*
X113478505Y-92192312D01*
X113692312Y-91978505D01*
X113860299Y-91727095D01*
X113976011Y-91447743D01*
X114035000Y-91151184D01*
X114035000Y-90848816D01*
X113976011Y-90552257D01*
X113926217Y-90432045D01*
X114143892Y-90522209D01*
X114710928Y-90635000D01*
X115289072Y-90635000D01*
X115856108Y-90522209D01*
X115909725Y-90500000D01*
X124361928Y-90500000D01*
X124374188Y-90624482D01*
X124410498Y-90744180D01*
X124454888Y-90827226D01*
X124408617Y-90938933D01*
X124365000Y-91158212D01*
X124365000Y-91381788D01*
X124408617Y-91601067D01*
X124494176Y-91807624D01*
X124618388Y-91993520D01*
X124776480Y-92151612D01*
X124962376Y-92275824D01*
X125168933Y-92361383D01*
X125388212Y-92405000D01*
X125611788Y-92405000D01*
X125831067Y-92361383D01*
X126037624Y-92275824D01*
X126223520Y-92151612D01*
X126381612Y-91993520D01*
X126505824Y-91807624D01*
X126591383Y-91601067D01*
X126635000Y-91381788D01*
X126635000Y-91158212D01*
X126591383Y-90938933D01*
X126545112Y-90827226D01*
X126589502Y-90744180D01*
X126625812Y-90624482D01*
X126638072Y-90500000D01*
X126635000Y-90285750D01*
X126476250Y-90127000D01*
X125627000Y-90127000D01*
X125627000Y-90138026D01*
X125611788Y-90135000D01*
X125388212Y-90135000D01*
X125373000Y-90138026D01*
X125373000Y-90127000D01*
X124523750Y-90127000D01*
X124365000Y-90285750D01*
X124361928Y-90500000D01*
X115909725Y-90500000D01*
X116390244Y-90300963D01*
X116870953Y-89979763D01*
X117279763Y-89570953D01*
X117327172Y-89500000D01*
X124361928Y-89500000D01*
X124365000Y-89714250D01*
X124523750Y-89873000D01*
X125373000Y-89873000D01*
X125373000Y-89023750D01*
X125627000Y-89023750D01*
X125627000Y-89873000D01*
X126476250Y-89873000D01*
X126635000Y-89714250D01*
X126638072Y-89500000D01*
X126625812Y-89375518D01*
X126589502Y-89255820D01*
X126530537Y-89145506D01*
X126451185Y-89048815D01*
X126354494Y-88969463D01*
X126244180Y-88910498D01*
X126124482Y-88874188D01*
X126000000Y-88861928D01*
X125785750Y-88865000D01*
X125627000Y-89023750D01*
X125373000Y-89023750D01*
X125214250Y-88865000D01*
X125000000Y-88861928D01*
X124875518Y-88874188D01*
X124755820Y-88910498D01*
X124645506Y-88969463D01*
X124548815Y-89048815D01*
X124469463Y-89145506D01*
X124410498Y-89255820D01*
X124374188Y-89375518D01*
X124361928Y-89500000D01*
X117327172Y-89500000D01*
X117600963Y-89090244D01*
X117822209Y-88556108D01*
X117935000Y-87989072D01*
X117935000Y-87410928D01*
X117822209Y-86843892D01*
X117600963Y-86309756D01*
X117279763Y-85829047D01*
X116870953Y-85420237D01*
X116390244Y-85099037D01*
X115856108Y-84877791D01*
X115289072Y-84765000D01*
X114710928Y-84765000D01*
X114143892Y-84877791D01*
X113609756Y-85099037D01*
X113129047Y-85420237D01*
X112720237Y-85829047D01*
X112399037Y-86309756D01*
X112177791Y-86843892D01*
X112065000Y-87410928D01*
X112065000Y-87989072D01*
X112177791Y-88556108D01*
X112399037Y-89090244D01*
X112649441Y-89465000D01*
X112348816Y-89465000D01*
X112052257Y-89523989D01*
X111772905Y-89639701D01*
X111521495Y-89807688D01*
X111307688Y-90021495D01*
X111250000Y-90107831D01*
X111192312Y-90021495D01*
X110978505Y-89807688D01*
X110727095Y-89639701D01*
X110447743Y-89523989D01*
X110151184Y-89465000D01*
X109848816Y-89465000D01*
X109552257Y-89523989D01*
X109272905Y-89639701D01*
X109021495Y-89807688D01*
X108807688Y-90021495D01*
X108750000Y-90107831D01*
X108692312Y-90021495D01*
X108478505Y-89807688D01*
X108227095Y-89639701D01*
X107947743Y-89523989D01*
X107651184Y-89465000D01*
X107350559Y-89465000D01*
X107600963Y-89090244D01*
X107822209Y-88556108D01*
X107935000Y-87989072D01*
X107935000Y-87410928D01*
X107822209Y-86843892D01*
X107600963Y-86309756D01*
X107279763Y-85829047D01*
X106870953Y-85420237D01*
X106390244Y-85099037D01*
X105856108Y-84877791D01*
X105289072Y-84765000D01*
X104710928Y-84765000D01*
X104143892Y-84877791D01*
X103609756Y-85099037D01*
X103129047Y-85420237D01*
X102720237Y-85829047D01*
X102399037Y-86309756D01*
X102177791Y-86843892D01*
X102065000Y-87410928D01*
X101627000Y-87410928D01*
X101627000Y-80018665D01*
X103565000Y-80018665D01*
X103565000Y-80301335D01*
X103620147Y-80578574D01*
X103728320Y-80839727D01*
X103885363Y-81074759D01*
X104085241Y-81274637D01*
X104320273Y-81431680D01*
X104581426Y-81539853D01*
X104858665Y-81595000D01*
X105141335Y-81595000D01*
X105418574Y-81539853D01*
X105679727Y-81431680D01*
X105914759Y-81274637D01*
X106114637Y-81074759D01*
X106271680Y-80839727D01*
X106379853Y-80578574D01*
X106435000Y-80301335D01*
X106435000Y-80018665D01*
X106379853Y-79741426D01*
X106271680Y-79480273D01*
X106114637Y-79245241D01*
X105914759Y-79045363D01*
X105679727Y-78888320D01*
X105418574Y-78780147D01*
X105141335Y-78725000D01*
X104858665Y-78725000D01*
X104581426Y-78780147D01*
X104320273Y-78888320D01*
X104085241Y-79045363D01*
X103885363Y-79245241D01*
X103728320Y-79480273D01*
X103620147Y-79741426D01*
X103565000Y-80018665D01*
X101627000Y-80018665D01*
X101627000Y-74263061D01*
X115830000Y-74263061D01*
X115830000Y-74466939D01*
X115869774Y-74666898D01*
X115947795Y-74855256D01*
X116061063Y-75024774D01*
X116205226Y-75168937D01*
X116374744Y-75282205D01*
X116563102Y-75360226D01*
X116763061Y-75400000D01*
X116825199Y-75400000D01*
X117571201Y-76146003D01*
X117594999Y-76175001D01*
X117710724Y-76269974D01*
X117842753Y-76340546D01*
X117986014Y-76384003D01*
X118097667Y-76395000D01*
X118097676Y-76395000D01*
X118134999Y-76398676D01*
X118172322Y-76395000D01*
X118431289Y-76395000D01*
X118475226Y-76438937D01*
X118644744Y-76552205D01*
X118833102Y-76630226D01*
X119033061Y-76670000D01*
X119236939Y-76670000D01*
X119436898Y-76630226D01*
X119625256Y-76552205D01*
X119794774Y-76438937D01*
X119938937Y-76294774D01*
X120052205Y-76125256D01*
X120130226Y-75936898D01*
X120170000Y-75736939D01*
X120170000Y-75533061D01*
X120130226Y-75333102D01*
X120052205Y-75144744D01*
X119938937Y-74975226D01*
X119794774Y-74831063D01*
X119625256Y-74717795D01*
X119436898Y-74639774D01*
X119236939Y-74600000D01*
X119033061Y-74600000D01*
X118833102Y-74639774D01*
X118644744Y-74717795D01*
X118475226Y-74831063D01*
X118440545Y-74865744D01*
X117939801Y-74365000D01*
X120073503Y-72231299D01*
X120102501Y-72207501D01*
X120128832Y-72175417D01*
X120197474Y-72091777D01*
X120268046Y-71959747D01*
X120311503Y-71816486D01*
X120322500Y-71704833D01*
X120322500Y-71704824D01*
X120326176Y-71667501D01*
X120322500Y-71630178D01*
X120322500Y-66141211D01*
X120366437Y-66097274D01*
X120479705Y-65927756D01*
X120557726Y-65739398D01*
X120597500Y-65539439D01*
X120597500Y-65335561D01*
X120557726Y-65135602D01*
X120479705Y-64947244D01*
X120366437Y-64777726D01*
X120222274Y-64633563D01*
X120052756Y-64520295D01*
X119864398Y-64442274D01*
X119664439Y-64402500D01*
X119460561Y-64402500D01*
X119260602Y-64442274D01*
X119072244Y-64520295D01*
X118902726Y-64633563D01*
X118758563Y-64777726D01*
X118645295Y-64947244D01*
X118567274Y-65135602D01*
X118527500Y-65335561D01*
X118527500Y-65539439D01*
X118567274Y-65739398D01*
X118645295Y-65927756D01*
X118758563Y-66097274D01*
X118802500Y-66141211D01*
X118802501Y-71352697D01*
X116825199Y-73330000D01*
X116763061Y-73330000D01*
X116563102Y-73369774D01*
X116374744Y-73447795D01*
X116205226Y-73561063D01*
X116061063Y-73705226D01*
X115947795Y-73874744D01*
X115869774Y-74063102D01*
X115830000Y-74263061D01*
X101627000Y-74263061D01*
X101627000Y-69858665D01*
X103565000Y-69858665D01*
X103565000Y-70141335D01*
X103620147Y-70418574D01*
X103728320Y-70679727D01*
X103885363Y-70914759D01*
X104085241Y-71114637D01*
X104320273Y-71271680D01*
X104581426Y-71379853D01*
X104858665Y-71435000D01*
X105141335Y-71435000D01*
X105418574Y-71379853D01*
X105679727Y-71271680D01*
X105914759Y-71114637D01*
X106114637Y-70914759D01*
X106271680Y-70679727D01*
X106379853Y-70418574D01*
X106435000Y-70141335D01*
X106435000Y-69858665D01*
X106379853Y-69581426D01*
X106271680Y-69320273D01*
X106114637Y-69085241D01*
X105914759Y-68885363D01*
X105679727Y-68728320D01*
X105418574Y-68620147D01*
X105141335Y-68565000D01*
X104858665Y-68565000D01*
X104581426Y-68620147D01*
X104320273Y-68728320D01*
X104085241Y-68885363D01*
X103885363Y-69085241D01*
X103728320Y-69320273D01*
X103620147Y-69581426D01*
X103565000Y-69858665D01*
X101627000Y-69858665D01*
X101627000Y-64992702D01*
X104186903Y-64992702D01*
X104258486Y-65236671D01*
X104513996Y-65357571D01*
X104788184Y-65426300D01*
X105070512Y-65440217D01*
X105350130Y-65398787D01*
X105616292Y-65303603D01*
X105741514Y-65236671D01*
X105813097Y-64992702D01*
X105000000Y-64179605D01*
X104186903Y-64992702D01*
X101627000Y-64992702D01*
X101627000Y-64070512D01*
X103559783Y-64070512D01*
X103601213Y-64350130D01*
X103696397Y-64616292D01*
X103763329Y-64741514D01*
X104007298Y-64813097D01*
X104820395Y-64000000D01*
X105179605Y-64000000D01*
X105992702Y-64813097D01*
X106236671Y-64741514D01*
X106250324Y-64712659D01*
X106385363Y-64914759D01*
X106585241Y-65114637D01*
X106820273Y-65271680D01*
X107081426Y-65379853D01*
X107358665Y-65435000D01*
X107641335Y-65435000D01*
X107918574Y-65379853D01*
X108179727Y-65271680D01*
X108414759Y-65114637D01*
X108614637Y-64914759D01*
X108771680Y-64679727D01*
X108879853Y-64418574D01*
X108935000Y-64141335D01*
X108935000Y-63858665D01*
X108879853Y-63581426D01*
X108771680Y-63320273D01*
X108614637Y-63085241D01*
X108414759Y-62885363D01*
X108179727Y-62728320D01*
X107918574Y-62620147D01*
X107641335Y-62565000D01*
X107358665Y-62565000D01*
X107081426Y-62620147D01*
X106820273Y-62728320D01*
X106585241Y-62885363D01*
X106385363Y-63085241D01*
X106251308Y-63285869D01*
X106236671Y-63258486D01*
X105992702Y-63186903D01*
X105179605Y-64000000D01*
X104820395Y-64000000D01*
X104007298Y-63186903D01*
X103763329Y-63258486D01*
X103642429Y-63513996D01*
X103573700Y-63788184D01*
X103559783Y-64070512D01*
X101627000Y-64070512D01*
X101627000Y-63007298D01*
X104186903Y-63007298D01*
X105000000Y-63820395D01*
X105813097Y-63007298D01*
X105741514Y-62763329D01*
X105486004Y-62642429D01*
X105211816Y-62573700D01*
X104929488Y-62559783D01*
X104649870Y-62601213D01*
X104383708Y-62696397D01*
X104258486Y-62763329D01*
X104186903Y-63007298D01*
X101627000Y-63007298D01*
X101627000Y-56500000D01*
X111861928Y-56500000D01*
X111874188Y-56624482D01*
X111910498Y-56744180D01*
X111969463Y-56854494D01*
X112048815Y-56951185D01*
X112145506Y-57030537D01*
X112255820Y-57089502D01*
X112375518Y-57125812D01*
X112500000Y-57138072D01*
X112714250Y-57135000D01*
X112873000Y-56976250D01*
X112873000Y-56127000D01*
X112023750Y-56127000D01*
X111865000Y-56285750D01*
X111861928Y-56500000D01*
X101627000Y-56500000D01*
X101627000Y-55500000D01*
X111861928Y-55500000D01*
X111865000Y-55714250D01*
X112023750Y-55873000D01*
X112873000Y-55873000D01*
X112873000Y-55023750D01*
X113127000Y-55023750D01*
X113127000Y-55873000D01*
X113138026Y-55873000D01*
X113135000Y-55888212D01*
X113135000Y-56111788D01*
X113138026Y-56127000D01*
X113127000Y-56127000D01*
X113127000Y-56976250D01*
X113285750Y-57135000D01*
X113500000Y-57138072D01*
X113624482Y-57125812D01*
X113744180Y-57089502D01*
X113827226Y-57045112D01*
X113938933Y-57091383D01*
X114158212Y-57135000D01*
X114381788Y-57135000D01*
X114601067Y-57091383D01*
X114807624Y-57005824D01*
X114993520Y-56881612D01*
X115151612Y-56723520D01*
X115275824Y-56537624D01*
X115361383Y-56331067D01*
X115405000Y-56111788D01*
X115405000Y-55888212D01*
X115361383Y-55668933D01*
X115275824Y-55462376D01*
X115151612Y-55276480D01*
X114993520Y-55118388D01*
X114807624Y-54994176D01*
X114601067Y-54908617D01*
X114381788Y-54865000D01*
X114158212Y-54865000D01*
X113938933Y-54908617D01*
X113827226Y-54954888D01*
X113744180Y-54910498D01*
X113624482Y-54874188D01*
X113500000Y-54861928D01*
X113285750Y-54865000D01*
X113127000Y-55023750D01*
X112873000Y-55023750D01*
X112714250Y-54865000D01*
X112500000Y-54861928D01*
X112375518Y-54874188D01*
X112255820Y-54910498D01*
X112145506Y-54969463D01*
X112048815Y-55048815D01*
X111969463Y-55145506D01*
X111910498Y-55255820D01*
X111874188Y-55375518D01*
X111861928Y-55500000D01*
X101627000Y-55500000D01*
X101627000Y-51627000D01*
X123373000Y-51627000D01*
X123373000Y-80000000D01*
G37*
%TD.AperFunction*%
%TD*%
M02*
