%TF.GenerationSoftware,KiCad,Pcbnew,(5.1.9)-1*%
%TF.CreationDate,2021-08-16T16:35:21-04:00*%
%TF.ProjectId,555-Timer-Soldering-Demo,3535352d-5469-46d6-9572-2d536f6c6465,rev?*%
%TF.SameCoordinates,Original*%
%TF.FileFunction,Legend,Top*%
%TF.FilePolarity,Positive*%
%FSLAX46Y46*%
G04 Gerber Fmt 4.6, Leading zero omitted, Abs format (unit mm)*
G04 Created by KiCad (PCBNEW (5.1.9)-1) date 2021-08-16 16:35:21*
%MOMM*%
%LPD*%
G01*
G04 APERTURE LIST*
%ADD10C,0.299720*%
%ADD11C,0.120000*%
%ADD12C,0.150000*%
G04 APERTURE END LIST*
D10*
X125107142Y-54678571D02*
X125107142Y-53178571D01*
X125678571Y-53178571D01*
X125821428Y-53250000D01*
X125892857Y-53321428D01*
X125964285Y-53464285D01*
X125964285Y-53678571D01*
X125892857Y-53821428D01*
X125821428Y-53892857D01*
X125678571Y-53964285D01*
X125107142Y-53964285D01*
X126535714Y-54607142D02*
X126750000Y-54678571D01*
X127107142Y-54678571D01*
X127250000Y-54607142D01*
X127321428Y-54535714D01*
X127392857Y-54392857D01*
X127392857Y-54250000D01*
X127321428Y-54107142D01*
X127250000Y-54035714D01*
X127107142Y-53964285D01*
X126821428Y-53892857D01*
X126678571Y-53821428D01*
X126607142Y-53750000D01*
X126535714Y-53607142D01*
X126535714Y-53464285D01*
X126607142Y-53321428D01*
X126678571Y-53250000D01*
X126821428Y-53178571D01*
X127178571Y-53178571D01*
X127392857Y-53250000D01*
X128035714Y-53178571D02*
X128035714Y-54392857D01*
X128107142Y-54535714D01*
X128178571Y-54607142D01*
X128321428Y-54678571D01*
X128607142Y-54678571D01*
X128750000Y-54607142D01*
X128821428Y-54535714D01*
X128892857Y-54392857D01*
X128892857Y-53178571D01*
X130678571Y-54607142D02*
X130892857Y-54678571D01*
X131250000Y-54678571D01*
X131392857Y-54607142D01*
X131464285Y-54535714D01*
X131535714Y-54392857D01*
X131535714Y-54250000D01*
X131464285Y-54107142D01*
X131392857Y-54035714D01*
X131250000Y-53964285D01*
X130964285Y-53892857D01*
X130821428Y-53821428D01*
X130750000Y-53750000D01*
X130678571Y-53607142D01*
X130678571Y-53464285D01*
X130750000Y-53321428D01*
X130821428Y-53250000D01*
X130964285Y-53178571D01*
X131321428Y-53178571D01*
X131535714Y-53250000D01*
X132392857Y-54678571D02*
X132250000Y-54607142D01*
X132178571Y-54535714D01*
X132107142Y-54392857D01*
X132107142Y-53964285D01*
X132178571Y-53821428D01*
X132250000Y-53750000D01*
X132392857Y-53678571D01*
X132607142Y-53678571D01*
X132750000Y-53750000D01*
X132821428Y-53821428D01*
X132892857Y-53964285D01*
X132892857Y-54392857D01*
X132821428Y-54535714D01*
X132750000Y-54607142D01*
X132607142Y-54678571D01*
X132392857Y-54678571D01*
X133750000Y-54678571D02*
X133607142Y-54607142D01*
X133535714Y-54464285D01*
X133535714Y-53178571D01*
X134964285Y-54678571D02*
X134964285Y-53178571D01*
X134964285Y-54607142D02*
X134821428Y-54678571D01*
X134535714Y-54678571D01*
X134392857Y-54607142D01*
X134321428Y-54535714D01*
X134250000Y-54392857D01*
X134250000Y-53964285D01*
X134321428Y-53821428D01*
X134392857Y-53750000D01*
X134535714Y-53678571D01*
X134821428Y-53678571D01*
X134964285Y-53750000D01*
X136250000Y-54607142D02*
X136107142Y-54678571D01*
X135821428Y-54678571D01*
X135678571Y-54607142D01*
X135607142Y-54464285D01*
X135607142Y-53892857D01*
X135678571Y-53750000D01*
X135821428Y-53678571D01*
X136107142Y-53678571D01*
X136250000Y-53750000D01*
X136321428Y-53892857D01*
X136321428Y-54035714D01*
X135607142Y-54178571D01*
X136964285Y-54678571D02*
X136964285Y-53678571D01*
X136964285Y-53964285D02*
X137035714Y-53821428D01*
X137107142Y-53750000D01*
X137250000Y-53678571D01*
X137392857Y-53678571D01*
X137892857Y-54678571D02*
X137892857Y-53678571D01*
X137892857Y-53178571D02*
X137821428Y-53250000D01*
X137892857Y-53321428D01*
X137964285Y-53250000D01*
X137892857Y-53178571D01*
X137892857Y-53321428D01*
X138607142Y-53678571D02*
X138607142Y-54678571D01*
X138607142Y-53821428D02*
X138678571Y-53750000D01*
X138821428Y-53678571D01*
X139035714Y-53678571D01*
X139178571Y-53750000D01*
X139250000Y-53892857D01*
X139250000Y-54678571D01*
X140607142Y-53678571D02*
X140607142Y-54892857D01*
X140535714Y-55035714D01*
X140464285Y-55107142D01*
X140321428Y-55178571D01*
X140107142Y-55178571D01*
X139964285Y-55107142D01*
X140607142Y-54607142D02*
X140464285Y-54678571D01*
X140178571Y-54678571D01*
X140035714Y-54607142D01*
X139964285Y-54535714D01*
X139892857Y-54392857D01*
X139892857Y-53964285D01*
X139964285Y-53821428D01*
X140035714Y-53750000D01*
X140178571Y-53678571D01*
X140464285Y-53678571D01*
X140607142Y-53750000D01*
X142464285Y-54678571D02*
X142464285Y-53178571D01*
X142821428Y-53178571D01*
X143035714Y-53250000D01*
X143178571Y-53392857D01*
X143250000Y-53535714D01*
X143321428Y-53821428D01*
X143321428Y-54035714D01*
X143250000Y-54321428D01*
X143178571Y-54464285D01*
X143035714Y-54607142D01*
X142821428Y-54678571D01*
X142464285Y-54678571D01*
X144535714Y-54607142D02*
X144392857Y-54678571D01*
X144107142Y-54678571D01*
X143964285Y-54607142D01*
X143892857Y-54464285D01*
X143892857Y-53892857D01*
X143964285Y-53750000D01*
X144107142Y-53678571D01*
X144392857Y-53678571D01*
X144535714Y-53750000D01*
X144607142Y-53892857D01*
X144607142Y-54035714D01*
X143892857Y-54178571D01*
X145250000Y-54678571D02*
X145250000Y-53678571D01*
X145250000Y-53821428D02*
X145321428Y-53750000D01*
X145464285Y-53678571D01*
X145678571Y-53678571D01*
X145821428Y-53750000D01*
X145892857Y-53892857D01*
X145892857Y-54678571D01*
X145892857Y-53892857D02*
X145964285Y-53750000D01*
X146107142Y-53678571D01*
X146321428Y-53678571D01*
X146464285Y-53750000D01*
X146535714Y-53892857D01*
X146535714Y-54678571D01*
X147464285Y-54678571D02*
X147321428Y-54607142D01*
X147250000Y-54535714D01*
X147178571Y-54392857D01*
X147178571Y-53964285D01*
X147250000Y-53821428D01*
X147321428Y-53750000D01*
X147464285Y-53678571D01*
X147678571Y-53678571D01*
X147821428Y-53750000D01*
X147892857Y-53821428D01*
X147964285Y-53964285D01*
X147964285Y-54392857D01*
X147892857Y-54535714D01*
X147821428Y-54607142D01*
X147678571Y-54678571D01*
X147464285Y-54678571D01*
D11*
%TO.C,C2*%
X118711252Y-63090000D02*
X117288748Y-63090000D01*
X118711252Y-64910000D02*
X117288748Y-64910000D01*
%TO.C,J1*%
X112240000Y-57110000D02*
X112240000Y-56000000D01*
X113000000Y-57110000D02*
X112240000Y-57110000D01*
X113760000Y-55436529D02*
X113760000Y-54890000D01*
X113760000Y-57110000D02*
X113760000Y-56563471D01*
X113760000Y-54890000D02*
X114965000Y-54890000D01*
X113760000Y-57110000D02*
X114965000Y-57110000D01*
X114965000Y-55692470D02*
X114965000Y-54890000D01*
X114965000Y-57110000D02*
X114965000Y-56307530D01*
%TO.C,J2*%
X124390000Y-89240000D02*
X125500000Y-89240000D01*
X124390000Y-90000000D02*
X124390000Y-89240000D01*
X126063471Y-90760000D02*
X126610000Y-90760000D01*
X124390000Y-90760000D02*
X124936529Y-90760000D01*
X126610000Y-90760000D02*
X126610000Y-91965000D01*
X124390000Y-90760000D02*
X124390000Y-91965000D01*
X125807530Y-91965000D02*
X126610000Y-91965000D01*
X124390000Y-91965000D02*
X125192470Y-91965000D01*
%TO.C,R1*%
X105000000Y-79120000D02*
X105000000Y-78350000D01*
X105000000Y-71040000D02*
X105000000Y-71810000D01*
X106370000Y-78350000D02*
X106370000Y-71810000D01*
X103630000Y-78350000D02*
X106370000Y-78350000D01*
X103630000Y-71810000D02*
X103630000Y-78350000D01*
X106370000Y-71810000D02*
X103630000Y-71810000D01*
%TO.C,RV1*%
X113120000Y-102720000D02*
X106880000Y-102720000D01*
X113120000Y-95320000D02*
X106880000Y-95320000D01*
X106880000Y-95320000D02*
X106880000Y-102720000D01*
X113120000Y-95320000D02*
X113120000Y-102720000D01*
X113370000Y-95320000D02*
X106630000Y-95320000D01*
X113370000Y-94520000D02*
X106630000Y-94520000D01*
X106630000Y-94520000D02*
X106630000Y-95320000D01*
X113370000Y-94520000D02*
X113370000Y-95320000D01*
X115021000Y-94520000D02*
X104980000Y-94520000D01*
X112444000Y-87480000D02*
X107555000Y-87480000D01*
X104980000Y-90255000D02*
X104980000Y-94520000D01*
X115021000Y-90255000D02*
X115021000Y-94520000D01*
%TO.C,C1*%
X106879000Y-63080000D02*
X105621000Y-63080000D01*
X106879000Y-64920000D02*
X105621000Y-64920000D01*
%TO.C,U1*%
X118000000Y-72440000D02*
X114550000Y-72440000D01*
X118000000Y-72440000D02*
X119950000Y-72440000D01*
X118000000Y-77560000D02*
X116050000Y-77560000D01*
X118000000Y-77560000D02*
X119950000Y-77560000D01*
%TO.C,C2*%
D12*
X117833333Y-66207142D02*
X117785714Y-66254761D01*
X117642857Y-66302380D01*
X117547619Y-66302380D01*
X117404761Y-66254761D01*
X117309523Y-66159523D01*
X117261904Y-66064285D01*
X117214285Y-65873809D01*
X117214285Y-65730952D01*
X117261904Y-65540476D01*
X117309523Y-65445238D01*
X117404761Y-65350000D01*
X117547619Y-65302380D01*
X117642857Y-65302380D01*
X117785714Y-65350000D01*
X117833333Y-65397619D01*
X118214285Y-65397619D02*
X118261904Y-65350000D01*
X118357142Y-65302380D01*
X118595238Y-65302380D01*
X118690476Y-65350000D01*
X118738095Y-65397619D01*
X118785714Y-65492857D01*
X118785714Y-65588095D01*
X118738095Y-65730952D01*
X118166666Y-66302380D01*
X118785714Y-66302380D01*
%TO.C,J1*%
X110757380Y-56333333D02*
X111471666Y-56333333D01*
X111614523Y-56380952D01*
X111709761Y-56476190D01*
X111757380Y-56619047D01*
X111757380Y-56714285D01*
X111757380Y-55333333D02*
X111757380Y-55904761D01*
X111757380Y-55619047D02*
X110757380Y-55619047D01*
X110900238Y-55714285D01*
X110995476Y-55809523D01*
X111043095Y-55904761D01*
%TO.C,J2*%
X125166666Y-87757380D02*
X125166666Y-88471666D01*
X125119047Y-88614523D01*
X125023809Y-88709761D01*
X124880952Y-88757380D01*
X124785714Y-88757380D01*
X125595238Y-87852619D02*
X125642857Y-87805000D01*
X125738095Y-87757380D01*
X125976190Y-87757380D01*
X126071428Y-87805000D01*
X126119047Y-87852619D01*
X126166666Y-87947857D01*
X126166666Y-88043095D01*
X126119047Y-88185952D01*
X125547619Y-88757380D01*
X126166666Y-88757380D01*
%TO.C,R1*%
X107822380Y-75246666D02*
X107346190Y-75580000D01*
X107822380Y-75818095D02*
X106822380Y-75818095D01*
X106822380Y-75437142D01*
X106870000Y-75341904D01*
X106917619Y-75294285D01*
X107012857Y-75246666D01*
X107155714Y-75246666D01*
X107250952Y-75294285D01*
X107298571Y-75341904D01*
X107346190Y-75437142D01*
X107346190Y-75818095D01*
X107822380Y-74294285D02*
X107822380Y-74865714D01*
X107822380Y-74580000D02*
X106822380Y-74580000D01*
X106965238Y-74675238D01*
X107060476Y-74770476D01*
X107108095Y-74865714D01*
%TO.C,RV1*%
X119002380Y-91595238D02*
X118526190Y-91928571D01*
X119002380Y-92166666D02*
X118002380Y-92166666D01*
X118002380Y-91785714D01*
X118050000Y-91690476D01*
X118097619Y-91642857D01*
X118192857Y-91595238D01*
X118335714Y-91595238D01*
X118430952Y-91642857D01*
X118478571Y-91690476D01*
X118526190Y-91785714D01*
X118526190Y-92166666D01*
X118002380Y-91309523D02*
X119002380Y-90976190D01*
X118002380Y-90642857D01*
X119002380Y-89785714D02*
X119002380Y-90357142D01*
X119002380Y-90071428D02*
X118002380Y-90071428D01*
X118145238Y-90166666D01*
X118240476Y-90261904D01*
X118288095Y-90357142D01*
%TO.C,C1*%
X106083333Y-66407142D02*
X106035714Y-66454761D01*
X105892857Y-66502380D01*
X105797619Y-66502380D01*
X105654761Y-66454761D01*
X105559523Y-66359523D01*
X105511904Y-66264285D01*
X105464285Y-66073809D01*
X105464285Y-65930952D01*
X105511904Y-65740476D01*
X105559523Y-65645238D01*
X105654761Y-65550000D01*
X105797619Y-65502380D01*
X105892857Y-65502380D01*
X106035714Y-65550000D01*
X106083333Y-65597619D01*
X107035714Y-66502380D02*
X106464285Y-66502380D01*
X106750000Y-66502380D02*
X106750000Y-65502380D01*
X106654761Y-65645238D01*
X106559523Y-65740476D01*
X106464285Y-65788095D01*
%TO.C,U1*%
X117238095Y-71052380D02*
X117238095Y-71861904D01*
X117285714Y-71957142D01*
X117333333Y-72004761D01*
X117428571Y-72052380D01*
X117619047Y-72052380D01*
X117714285Y-72004761D01*
X117761904Y-71957142D01*
X117809523Y-71861904D01*
X117809523Y-71052380D01*
X118809523Y-72052380D02*
X118238095Y-72052380D01*
X118523809Y-72052380D02*
X118523809Y-71052380D01*
X118428571Y-71195238D01*
X118333333Y-71290476D01*
X118238095Y-71338095D01*
%TD*%
M02*
