%TF.GenerationSoftware,KiCad,Pcbnew,(5.1.9)-1*%
%TF.CreationDate,2021-08-16T16:35:21-04:00*%
%TF.ProjectId,555-Timer-Soldering-Demo,3535352d-5469-46d6-9572-2d536f6c6465,rev?*%
%TF.SameCoordinates,Original*%
%TF.FileFunction,Paste,Top*%
%TF.FilePolarity,Positive*%
%FSLAX46Y46*%
G04 Gerber Fmt 4.6, Leading zero omitted, Abs format (unit mm)*
G04 Created by KiCad (PCBNEW (5.1.9)-1) date 2021-08-16 16:35:21*
%MOMM*%
%LPD*%
G01*
G04 APERTURE LIST*
G04 APERTURE END LIST*
%TO.C,C2*%
G36*
G01*
X117100000Y-63349999D02*
X117100000Y-64650001D01*
G75*
G02*
X116850001Y-64900000I-249999J0D01*
G01*
X116024999Y-64900000D01*
G75*
G02*
X115775000Y-64650001I0J249999D01*
G01*
X115775000Y-63349999D01*
G75*
G02*
X116024999Y-63100000I249999J0D01*
G01*
X116850001Y-63100000D01*
G75*
G02*
X117100000Y-63349999I0J-249999D01*
G01*
G37*
G36*
G01*
X120225000Y-63349999D02*
X120225000Y-64650001D01*
G75*
G02*
X119975001Y-64900000I-249999J0D01*
G01*
X119149999Y-64900000D01*
G75*
G02*
X118900000Y-64650001I0J249999D01*
G01*
X118900000Y-63349999D01*
G75*
G02*
X119149999Y-63100000I249999J0D01*
G01*
X119975001Y-63100000D01*
G75*
G02*
X120225000Y-63349999I0J-249999D01*
G01*
G37*
%TD*%
%TO.C,U1*%
G36*
G01*
X119500000Y-73245000D02*
X119500000Y-72945000D01*
G75*
G02*
X119650000Y-72795000I150000J0D01*
G01*
X121300000Y-72795000D01*
G75*
G02*
X121450000Y-72945000I0J-150000D01*
G01*
X121450000Y-73245000D01*
G75*
G02*
X121300000Y-73395000I-150000J0D01*
G01*
X119650000Y-73395000D01*
G75*
G02*
X119500000Y-73245000I0J150000D01*
G01*
G37*
G36*
G01*
X119500000Y-74515000D02*
X119500000Y-74215000D01*
G75*
G02*
X119650000Y-74065000I150000J0D01*
G01*
X121300000Y-74065000D01*
G75*
G02*
X121450000Y-74215000I0J-150000D01*
G01*
X121450000Y-74515000D01*
G75*
G02*
X121300000Y-74665000I-150000J0D01*
G01*
X119650000Y-74665000D01*
G75*
G02*
X119500000Y-74515000I0J150000D01*
G01*
G37*
G36*
G01*
X119500000Y-75785000D02*
X119500000Y-75485000D01*
G75*
G02*
X119650000Y-75335000I150000J0D01*
G01*
X121300000Y-75335000D01*
G75*
G02*
X121450000Y-75485000I0J-150000D01*
G01*
X121450000Y-75785000D01*
G75*
G02*
X121300000Y-75935000I-150000J0D01*
G01*
X119650000Y-75935000D01*
G75*
G02*
X119500000Y-75785000I0J150000D01*
G01*
G37*
G36*
G01*
X119500000Y-77055000D02*
X119500000Y-76755000D01*
G75*
G02*
X119650000Y-76605000I150000J0D01*
G01*
X121300000Y-76605000D01*
G75*
G02*
X121450000Y-76755000I0J-150000D01*
G01*
X121450000Y-77055000D01*
G75*
G02*
X121300000Y-77205000I-150000J0D01*
G01*
X119650000Y-77205000D01*
G75*
G02*
X119500000Y-77055000I0J150000D01*
G01*
G37*
G36*
G01*
X114550000Y-77055000D02*
X114550000Y-76755000D01*
G75*
G02*
X114700000Y-76605000I150000J0D01*
G01*
X116350000Y-76605000D01*
G75*
G02*
X116500000Y-76755000I0J-150000D01*
G01*
X116500000Y-77055000D01*
G75*
G02*
X116350000Y-77205000I-150000J0D01*
G01*
X114700000Y-77205000D01*
G75*
G02*
X114550000Y-77055000I0J150000D01*
G01*
G37*
G36*
G01*
X114550000Y-75785000D02*
X114550000Y-75485000D01*
G75*
G02*
X114700000Y-75335000I150000J0D01*
G01*
X116350000Y-75335000D01*
G75*
G02*
X116500000Y-75485000I0J-150000D01*
G01*
X116500000Y-75785000D01*
G75*
G02*
X116350000Y-75935000I-150000J0D01*
G01*
X114700000Y-75935000D01*
G75*
G02*
X114550000Y-75785000I0J150000D01*
G01*
G37*
G36*
G01*
X114550000Y-74515000D02*
X114550000Y-74215000D01*
G75*
G02*
X114700000Y-74065000I150000J0D01*
G01*
X116350000Y-74065000D01*
G75*
G02*
X116500000Y-74215000I0J-150000D01*
G01*
X116500000Y-74515000D01*
G75*
G02*
X116350000Y-74665000I-150000J0D01*
G01*
X114700000Y-74665000D01*
G75*
G02*
X114550000Y-74515000I0J150000D01*
G01*
G37*
G36*
G01*
X114550000Y-73245000D02*
X114550000Y-72945000D01*
G75*
G02*
X114700000Y-72795000I150000J0D01*
G01*
X116350000Y-72795000D01*
G75*
G02*
X116500000Y-72945000I0J-150000D01*
G01*
X116500000Y-73245000D01*
G75*
G02*
X116350000Y-73395000I-150000J0D01*
G01*
X114700000Y-73395000D01*
G75*
G02*
X114550000Y-73245000I0J150000D01*
G01*
G37*
%TD*%
M02*
